<svg xmlns="http://www.w3.org/2000/svg" width="116.346" height="41.783" viewBox="0 0 116.346 41.783"><defs><style>.a,.e{fill:none;}.a,.b{stroke:#141414;stroke-width:4px;}.b{fill:#fff;}.c{fill:#141414;}.d{stroke:none;}</style></defs><g transform="translate(-846.052 -2633.78)"><g transform="translate(904.236 2640.657)"><path class="a" d="M806.967,2641.221h10.411" transform="translate(-806.967 -2641.221)"/><path class="a" d="M806.967,2647.6v-6.384h21.118v6.384" transform="translate(-771.924 -2641.221)"/><path class="a" d="M806.967,2641.221h10.411" transform="translate(-806.967 -2616.488)"/><path class="a" d="M806.967,2641.221h10.411" transform="translate(-766.57 -2616.488)"/><path class="a" d="M1160.281,2625.221v24.966" transform="translate(-1155.075 -2625.221)"/><path class="a" d="M1160.281,2625.221v24.966" transform="translate(-1114.678 -2625.221)"/><g class="b" transform="translate(14.043 8.062)"><ellipse class="d" cx="8.657" cy="9.481" rx="8.657" ry="9.481"/><ellipse class="e" cx="8.657" cy="9.481" rx="6.657" ry="7.481"/></g></g><g transform="translate(846.052 2633.78)"><path class="c" d="M164.808,381.342a4.434,4.434,0,1,0-4.13-2.861L155.3,382.5a6.432,6.432,0,0,0-5.94-1.512l-2.981-6.59a3.694,3.694,0,1,0-2.52,1,3.734,3.734,0,0,0,.529-.042l2.947,6.516a6.507,6.507,0,0,0-2.7,3.744l-5.1-.432a4.891,4.891,0,1,0-.206,2.439l5.12.434a6.5,6.5,0,0,0,2.959,4.726l-1,2.516-.933,2.341a6.1,6.1,0,1,0,2.4.951l.943-2.369,1-2.507a6.451,6.451,0,0,0,6.492-2.774l4.5,2.186a3.491,3.491,0,0,0-.061.63,3.452,3.452,0,1,0,.858-2.268l-4.5-2.188a6.472,6.472,0,0,0-.344-4.837l5.38-4.019A4.39,4.39,0,0,0,164.808,381.342Z" transform="translate(-129.827 -368)"/></g></g></svg>